<?xml version="1.0" encoding="utf-8"?>
<!-- Generator: Adobe Illustrator 17.1.0, SVG Export Plug-In . SVG Version: 6.00 Build 0)  -->
<!DOCTYPE svg PUBLIC "-//W3C//DTD SVG 1.1//EN" "http://www.w3.org/Graphics/SVG/1.1/DTD/svg11.dtd">
<svg version="1.1" id="Layer_1" xmlns="http://www.w3.org/2000/svg" xmlns:xlink="http://www.w3.org/1999/xlink" x="0px" y="0px"
	 viewBox="0 0 1280 800" enable-background="new 0 0 1280 800" xml:space="preserve">
<g>
	<path fill="#4F4372" d="M601.9,423.1v-29.3h11.4c6.5,0,9.7,2.9,9.7,8.6c0,5.8-3.6,8.7-10.8,8.7h-2.6v12H601.9z M609.6,408.4h1.7
		c2.8,0,4.2-2,4.2-6.1c0-3.8-1.4-5.8-4.2-5.8h-1.7V408.4z"/>
	<path fill="#4F4372" d="M634,400.9c6.4,0,9.7,3.8,9.7,11.3s-3.2,11.3-9.7,11.3c-6.5,0-9.7-3.8-9.7-11.3S627.5,400.9,634,400.9z
		 M634,402.8c-1.6,0-2.3,3.1-2.3,9.4s0.8,9.4,2.3,9.4c1.6,0,2.4-3.1,2.4-9.4S635.6,402.8,634,402.8z"/>
	<path fill="#4F4372" d="M653.7,393.4v29.8h-7.1v-29.3C648.5,393.8,650.9,393.7,653.7,393.4z"/>
	<path fill="#4F4372" d="M673.9,401.5l-8.9,24.4c-1.2,3.4-2.9,5-5,5c-2,0-3.4-1-4.1-2.9l2.4-2c0.2,1.6,0.7,2.5,1.6,2.5
		c1,0,1.8-1,2.5-2.9l0.5-1.5l-7.9-22.7h7.8l3.9,12.7l4.5-12.7H673.9z"/>
	<path fill="#4F4372" d="M692.9,393.8v2.9h-9.6v9.8h8.1v2.9h-8.1v13.7h-7.7v-29.3H692.9z"/>
	<path fill="#4F4372" d="M702.2,393.4v29.8h-7.1v-29.3C697.1,393.8,699.4,393.7,702.2,393.4z"/>
	<path fill="#4F4372" d="M720,415.2l2.8,0.9c-0.3,5-3,7.5-8,7.5c-6.5,0-9.7-3.6-9.7-10.8c0-3.5,0.9-6.4,2.6-8.6
		c1.7-2.2,3.9-3.4,6.6-3.4c5.6,0,8.5,4,8.5,12.1h-10.3c0,5.7,1.3,8.5,3.9,8.5c2.4,0,3.6-1.6,3.6-4.8
		C720.1,416.2,720,415.8,720,415.2z M712.5,410.6h4.2c0-5-0.7-7.6-2.1-7.6c-1.2,0-1.9,1.9-2.1,5.6L712.5,410.6z"/>
	<path fill="#4F4372" d="M741.9,401.5l-5.7,8.7l6.6,13h-8.1L731,416l-4.7,7.1h-2.7l6.2-9.4l-6.2-12.2h8.1l3.2,6.3l4.2-6.3H741.9z"/>
</g>
<path fill-rule="evenodd" clip-rule="evenodd" fill="#4F4372" d="M576.1,373.8c-1,0-3.3-0.5-6.1-0.3c-5.3,0.2-10.5,2.1-14.7,4.9
	c-2.7,1.9-4.7,3.8-6.7,6.4c-4.4,5.8-6.2,12.9-5.5,20.4c0.7,6.8,4.1,12.9,8.8,17.4c2.3,2.2,5,3.8,7.9,5.3c-1.4,0-4.5-1.3-5.6-1.8
	c-1.6-0.7-3.4-1.7-4.7-2.7c-5.9-4.2-10.4-10.7-11.7-18.2c-1.4-8.7,0.7-16.6,6-23.2c4.7-5.9,11.6-9.5,19.5-10.3
	C568,371.4,572.4,372.5,576.1,373.8"/>
<path fill-rule="evenodd" clip-rule="evenodd" fill="#4F4372" d="M586.2,420.2c-1.4,1.3-4,2.8-6.3,3.7c-2.8,1.1-5.5,1.6-8.9,1.6
	c-11.5,0-20.6-8.6-22.7-18.3c-1.4-6.2-0.3-12.2,2.3-16.9c1.8-3.2,4.4-6,7.3-8.1c0.6-0.4,2.6-1.7,3.3-1.8c-0.4,0.1-2.3,2-2.9,2.5
	c-2.8,2.7-5.1,6.8-6,10.8c-1.6,6.7-0.2,13.2,2.9,18.1c2.8,4.5,7,7.9,12.5,9.8c5.4,1.8,11.3,1.4,16.5-0.7
	C584.9,420.8,585.6,420.3,586.2,420.2 M553.4,410.4c-2.2-1-3.5,2.4-1.3,3.3C554.1,414.5,555.6,411.4,553.4,410.4z M555.8,414.1
	c-2.3-0.7-3.2,2.7-1.1,3.4C557.1,418.2,558.1,414.8,555.8,414.1z"/>
<path fill-rule="evenodd" clip-rule="evenodd" fill="#4F4372" d="M594.9,401.4c0,2.7-1.6,6.4-2.7,8.2c-4.4,7.4-13.7,11.4-22.7,8.6
	c-2.6-0.8-5.3-2.3-7-3.9c-1-0.9-1.7-1.6-2.7-2.8c-2.6-3.4-4.3-7.8-4.1-12.5c0.1-2.6,0.9-6.7,2.3-8.7c-0.3,1.3-0.6,2.4-0.8,4
	c-0.9,9,4.7,17.5,13.6,20.2c9.1,2.8,18.5-1.6,22.7-9.6C594,403.6,594.4,402.6,594.9,401.4"/>
<path fill-rule="evenodd" clip-rule="evenodd" fill="#4F4372" d="M592.6,394.3v0.6c0,13.1-14.9,20.5-25.3,13.6
	c-2.3-1.5-4.1-3.4-5.5-5.9c-0.7-1.2-1.8-4-1.8-5.7c2.8,9.9,14.6,14.2,23.2,8.7c7.3-4.7,9.6-14.6,4.3-22.1c-0.4-0.5-1.7-2.2-2.2-2.4
	c1.7,0.7,4.1,3.7,5,5.2C591.5,388.4,592.6,391.3,592.6,394.3"/>
<path fill-rule="evenodd" clip-rule="evenodd" fill="#4F4372" d="M574.4,388.1c2.9,0.6,5.4,3.3,4.6,7c-0.5,2.8-3.5,5.3-6.8,4.6
	C564.4,398.1,567,386.6,574.4,388.1"/>
<circle fill-rule="evenodd" clip-rule="evenodd" fill="#4F4372" cx="555.3" cy="415.8" r="1.8"/>
<circle fill="#4F4372" cx="555.3" cy="415.8" r="1.8"/>
<circle fill-rule="evenodd" clip-rule="evenodd" fill="#4F4372" cx="552.6" cy="412.1" r="1.8"/>
<circle fill="#4F4372" cx="552.6" cy="412.1" r="1.8"/>
</svg>
